<?xml version="1.0" encoding="UTF-8"?>
<svg id="Capa_2" data-name="Capa 2" xmlns="http://www.w3.org/2000/svg" viewBox="0 0 224.27 224.17">
  <defs>
    <style>
      .cls-1 {
        fill: #fff;
      }
    </style>
  </defs>
  <g id="Capa_1-2" data-name="Capa 1">
    <g>
      <path class="cls-1" d="M112.14,0h0C50.21,0,0,50.11,0,112.52s50.21,111.65,112.13,111.65h0c61.93,0,112.13-50.11,112.13-111.65S174.07,0,112.14,0ZM174.57,144.17c0,16.68-14.04,30.76-30.66,30.76h-63.8c-16.61,0-30.65-14.08-30.65-30.76v-64.18c0-16.96,13.75-30.76,30.65-30.76h63.8c16.9,0,30.66,13.8,30.66,30.76v64.18Z"/>
      <path class="cls-1" d="M141.79,61.54h-59.55c-11.44,0-20.39,9.26-20.39,21.09v58.9c0,11.53,8.76,20.22,20.39,20.22h59.55c11.62,0,20.39-8.69,20.39-20.22v-58.9c0-11.83-8.96-21.09-20.39-21.09ZM112.07,145.05c-17.77,0-32.78-15.3-32.78-33.41s14.71-32.53,32.78-32.53,32.78,14.59,32.78,32.53-15.01,33.41-32.78,33.41ZM146.1,85.26c-4.07,0-7.26-3.08-7.26-7.02,0-4.22,3.39-7.92,7.26-7.92s7.26,3.7,7.26,7.92c0,3.94-3.19,7.02-7.26,7.02Z"/>
      <path class="cls-1" d="M132.47,111.64c0,11.64-9.15,21.1-20.4,21.1s-20.39-9.46-20.39-21.1c0-10.96,9.34-20.22,20.39-20.22s20.4,9.26,20.4,20.22Z"/>
    </g>
  </g>
</svg>